<svg width="1295" height="300" viewBox="0 0 1295 300" fill="none" xmlns="http://www.w3.org/2000/svg">
<path d="M22.2391 256V43H165.339V79.3H63.6391V134.2H148.239V167.8H63.6391V256H22.2391ZM253.83 259C241.03 259 229.53 256.9 219.33 252.7C209.13 248.3 200.43 242.3 193.23 234.7C186.23 227.1 180.83 218.4 177.03 208.6C173.23 198.8 171.33 188.5 171.33 177.7C171.33 166.7 173.23 156.3 177.03 146.5C180.83 136.7 186.23 128 193.23 120.4C200.43 112.8 209.13 106.9 219.33 102.7C229.53 98.3 241.03 96.1 253.83 96.1C266.63 96.1 278.03 98.3 288.03 102.7C298.23 106.9 306.93 112.8 314.13 120.4C321.33 128 326.73 136.7 330.33 146.5C334.13 156.3 336.03 166.7 336.03 177.7C336.03 188.5 334.13 198.8 330.33 208.6C326.73 218.4 321.33 227.1 314.13 234.7C307.13 242.3 298.53 248.3 288.33 252.7C278.13 256.9 266.63 259 253.83 259ZM212.73 177.7C212.73 186.9 214.53 195.1 218.13 202.3C221.73 209.3 226.63 214.8 232.83 218.8C239.03 222.8 246.03 224.8 253.83 224.8C261.43 224.8 268.33 222.8 274.53 218.8C280.73 214.6 285.63 209 289.23 202C293.03 194.8 294.93 186.6 294.93 177.4C294.93 168.4 293.03 160.3 289.23 153.1C285.63 145.9 280.73 140.3 274.53 136.3C268.33 132.3 261.43 130.3 253.83 130.3C246.03 130.3 239.03 132.4 232.83 136.6C226.63 140.6 221.73 146.2 218.13 153.4C214.53 160.4 212.73 168.5 212.73 177.7ZM362.863 37H403.063V205.6C403.063 212.8 404.263 217.7 406.663 220.3C409.063 222.7 412.363 223.9 416.563 223.9C419.763 223.9 423.063 223.5 426.463 222.7C429.863 221.9 432.863 220.9 435.463 219.7L440.863 250.3C435.463 252.9 429.163 254.9 421.963 256.3C414.763 257.7 408.263 258.4 402.463 258.4C389.863 258.4 380.063 255.1 373.063 248.5C366.263 241.7 362.863 232.1 362.863 219.7V37ZM458.378 256V98.8H498.578V256H458.378ZM458.378 76.9V37H498.578V76.9H458.378ZM607.443 259C594.643 259 583.143 256.9 572.943 252.7C562.743 248.3 554.043 242.3 546.843 234.7C539.843 227.1 534.443 218.4 530.643 208.6C526.843 198.8 524.943 188.5 524.943 177.7C524.943 166.7 526.843 156.3 530.643 146.5C534.443 136.7 539.843 128 546.843 120.4C554.043 112.8 562.743 106.9 572.943 102.7C583.143 98.3 594.643 96.1 607.443 96.1C620.243 96.1 631.643 98.3 641.643 102.7C651.843 106.9 660.543 112.8 667.743 120.4C674.943 128 680.343 136.7 683.943 146.5C687.743 156.3 689.643 166.7 689.643 177.7C689.643 188.5 687.743 198.8 683.943 208.6C680.343 218.4 674.943 227.1 667.743 234.7C660.743 242.3 652.143 248.3 641.943 252.7C631.743 256.9 620.243 259 607.443 259ZM566.343 177.7C566.343 186.9 568.143 195.1 571.743 202.3C575.343 209.3 580.243 214.8 586.443 218.8C592.643 222.8 599.643 224.8 607.443 224.8C615.043 224.8 621.943 222.8 628.143 218.8C634.343 214.6 639.243 209 642.843 202C646.643 194.8 648.543 186.6 648.543 177.4C648.543 168.4 646.643 160.3 642.843 153.1C639.243 145.9 634.343 140.3 628.143 136.3C621.943 132.3 615.043 130.3 607.443 130.3C599.643 130.3 592.643 132.4 586.443 136.6C580.243 140.6 575.343 146.2 571.743 153.4C568.143 160.4 566.343 168.5 566.343 177.7ZM897.14 43V256H856.04V165.1H759.44V256H718.04V43H759.44V129.1H856.04V43H897.14ZM936.175 197.2V98.8H976.375V188.5C976.375 200.5 978.575 209.6 982.975 215.8C987.375 221.8 993.875 224.8 1002.48 224.8C1007.68 224.8 1012.78 223.8 1017.78 221.8C1022.98 219.6 1027.68 216.4 1031.88 212.2C1036.28 208 1039.98 202.7 1042.98 196.3V98.8H1083.18V211C1083.18 215.2 1083.88 218.2 1085.28 220C1086.88 221.8 1089.38 222.9 1092.78 223.3V256C1088.78 256.6 1085.38 257 1082.58 257.2C1079.98 257.6 1077.58 257.8 1075.38 257.8C1068.18 257.8 1062.28 256.2 1057.68 253C1053.28 249.6 1050.68 245 1049.88 239.2L1048.98 226.6C1041.98 237.2 1032.98 245.3 1021.98 250.9C1010.98 256.3 998.875 259 985.675 259C969.475 259 957.175 253.8 948.775 243.4C940.375 232.8 936.175 217.4 936.175 197.2ZM1212.52 259C1200.52 259 1189.82 256.3 1180.42 250.9C1171.02 245.5 1163.62 238.1 1158.22 228.7V256H1123.12V37H1163.32V126.4C1168.92 117 1176.22 109.6 1185.22 104.2C1194.42 98.8 1205.12 96.1 1217.32 96.1C1227.52 96.1 1236.82 98.3 1245.22 102.7C1253.62 106.9 1260.82 112.8 1266.82 120.4C1273.02 128 1277.72 136.7 1280.92 146.5C1284.32 156.3 1286.02 166.8 1286.02 178C1286.02 189.2 1284.12 199.7 1280.32 209.5C1276.72 219.3 1271.62 228 1265.02 235.6C1258.42 243 1250.62 248.8 1241.62 253C1232.82 257 1223.12 259 1212.52 259ZM1201.42 224.8C1207.82 224.8 1213.62 223.6 1218.82 221.2C1224.22 218.6 1228.82 215.2 1232.62 211C1236.62 206.8 1239.62 201.9 1241.62 196.3C1243.82 190.5 1244.92 184.5 1244.92 178.3C1244.92 169.7 1243.12 161.8 1239.52 154.6C1236.12 147.2 1231.32 141.3 1225.12 136.9C1219.12 132.5 1212.02 130.3 1203.82 130.3C1198.02 130.3 1192.42 131.7 1187.02 134.5C1181.82 137.1 1177.12 140.7 1172.92 145.3C1168.92 149.9 1165.72 155.1 1163.32 160.9V198.4C1164.52 202.4 1166.42 206 1169.02 209.2C1171.82 212.4 1175.02 215.2 1178.62 217.6C1182.22 219.8 1185.92 221.6 1189.72 223C1193.72 224.2 1197.62 224.8 1201.42 224.8Z" fill="black"/>
<path d="M528 60L542.833 71.2653C550.721 77.2567 561.698 77.0224 569.324 70.6999V70.6999C576.897 64.4215 587.783 64.1418 595.668 70.0231L597.652 71.5029C605.533 77.3813 616.398 77.1651 624.039 70.9779L624.694 70.4469C632.214 64.3582 642.97 64.3685 650.478 70.4715V70.4715C658.288 76.8206 669.557 76.5463 677.049 69.8246L688 60" stroke="black" stroke-width="20"/>
</svg>
