<svg width="980" height="471" viewBox="0 0 980 471" fill="none" xmlns="http://www.w3.org/2000/svg">
<path d="M51 327.628L143.785 410.223C179.026 441.594 232.511 440.425 266.347 407.544L289.089 385.445C322.703 352.78 375.759 351.383 411.046 382.232L445.009 411.923C479.989 442.504 532.499 441.43 566.2 409.445L590.333 386.542C625.11 353.536 679.657 353.589 714.37 386.663L732.298 403.744C768.308 438.053 825.321 436.648 859.597 400.606L929 327.628" stroke="#607AE9" stroke-width="72" stroke-linecap="square"/>
<path d="M51 186.067L143.785 268.662C179.026 300.032 232.511 298.863 266.347 265.983L289.089 243.883C322.703 211.219 375.759 209.821 411.046 240.67L445.009 270.362C479.989 300.942 532.499 299.869 566.2 267.884L590.333 244.981C625.11 211.975 679.657 212.028 714.37 245.102L732.298 262.183C768.308 296.492 825.321 295.087 859.597 259.045L929 186.067" stroke="#5090E6" stroke-width="72" stroke-linecap="square"/>
<path d="M51 51L143.785 133.595C179.026 164.966 232.511 163.797 266.347 130.916L289.089 108.817C322.703 76.1526 375.759 74.7547 411.046 105.604L445.009 135.295C479.989 165.876 532.499 164.802 566.2 132.817L590.333 109.914C625.11 76.9082 679.657 76.9613 714.37 110.035L732.298 127.116C768.308 161.425 825.321 160.02 859.597 123.978L929 51" stroke="#42A7E3" stroke-width="72" stroke-linecap="square"/>
</svg>
